<?xml version="1.0" encoding="UTF-8" standalone="no"?>
<!-- Created with Inkscape (http://www.inkscape.org/) -->

<svg
   xmlns:dc="http://purl.org/dc/elements/1.1/"
   xmlns:cc="http://creativecommons.org/ns#"
   xmlns:rdf="http://www.w3.org/1999/02/22-rdf-syntax-ns#"
   xmlns:svg="http://www.w3.org/2000/svg"
   xmlns="http://www.w3.org/2000/svg"
   xmlns:sodipodi="http://sodipodi.sourceforge.net/DTD/sodipodi-0.dtd"
   xmlns:inkscape="http://www.inkscape.org/namespaces/inkscape"
   width="210mm"
   height="297mm"
   viewBox="0 0 210 297"
   version="1.1"
   id="svg8"
   inkscape:version="0.92.5 (2060ec1f9f, 2020-04-08)"
   sodipodi:docname="pinterest.svg">
  <defs
     id="defs2" />
  <sodipodi:namedview
     id="base"
     pagecolor="#ffffff"
     bordercolor="#666666"
     borderopacity="1.0"
     inkscape:pageopacity="0.0"
     inkscape:pageshadow="2"
     inkscape:zoom="0.35"
     inkscape:cx="400"
     inkscape:cy="217.14286"
     inkscape:document-units="mm"
     inkscape:current-layer="layer1"
     showgrid="false"
     inkscape:window-width="956"
     inkscape:window-height="1041"
     inkscape:window-x="960"
     inkscape:window-y="18"
     inkscape:window-maximized="0" />
  <metadata
     id="metadata5">
    <rdf:RDF>
      <cc:Work
         rdf:about="">
        <dc:format>image/svg+xml</dc:format>
        <dc:type
           rdf:resource="http://purl.org/dc/dcmitype/StillImage" />
        <dc:title></dc:title>
      </cc:Work>
    </rdf:RDF>
  </metadata>
  <g
     inkscape:label="Layer 1"
     inkscape:groupmode="layer"
     id="layer1">
    <path
       style="fill:#000000;stroke-width:0.53785932"
       d="m 48.071935,295.91893 c -0.676234,-0.93943 -1.871108,-10.27333 -2.902001,-22.66909 -1.088453,-13.08795 -0.729019,-33.2237 0.736988,-41.28648 0.548673,-3.01761 5.176987,-24.90653 10.285125,-48.64208 l 9.287548,-43.15555 -0.999761,-2.68909 c -2.595176,-6.98029 -4.367086,-20.11603 -3.770208,-27.94958 0.522901,-6.86267 2.135674,-13.705411 4.628048,-19.636023 1.916759,-4.560918 2.991474,-6.268242 6.370495,-10.120197 6.053535,-6.900794 11.166466,-9.515803 18.605588,-9.515803 13.213763,0 21.103023,10.950981 20.107783,27.911399 -0.3971,6.767084 -2.28597,15.480794 -7.34516,33.884264 -2.22667,8.09987 -4.60357,17.18421 -5.282005,20.18746 -2.669845,11.81864 -0.97154,20.0006 5.660645,27.2714 3.50967,3.84763 7.18476,5.98375 12.42341,7.22105 6.49328,1.53362 15.3829,0.0278 23.00964,-3.89772 9.61269,-4.94764 18.60781,-15.66998 24.48799,-29.19007 8.73921,-20.09379 11.49855,-48.84727 6.64896,-69.285011 C 165.6736,66.019511 154.15434,50.064247 138.88807,41.230273 119.03074,29.739604 90.985784,29.543563 69.889793,40.747965 55.716536,48.275622 43.597646,62.139705 36.998474,78.375894 29.817031,96.044642 29.04238,117.54852 34.958875,134.99375 c 1.53088,4.51393 4.623132,10.97124 6.970319,14.55555 1.434486,2.19057 2.035695,3.67756 2.035695,5.03491 0,2.49524 -4.363323,21.82746 -5.309536,23.52451 -1.000027,1.79355 -3.087708,1.67644 -6.60478,-0.37052 C 20.48591,171.00746 10.379215,155.52474 4.9059097,136.15457 1.9832308,125.81107 1.1743061,119.95448 1.188168,109.2383 1.2195836,84.979147 7.1021075,64.69183 19.69445,45.415049 23.333706,39.843942 31.349526,30.592591 36.422415,26.108657 60.796987,4.563971 99.867218,-4.2461839 133.62848,4.1891382 c 39.74049,9.9292298 67.6995,41.6674548 74.47952,84.5468488 1.05329,6.661451 1.16314,24.035723 0.20447,32.341653 -3.23601,28.03699 -13.38306,52.30807 -28.98647,69.33376 -12.34858,13.47415 -25.76587,21.20039 -42.19113,24.29539 -14.25559,2.68618 -27.27876,0.45536 -37.900578,-6.49223 -3.700632,-2.42053 -9.688779,-8.49821 -11.253631,-11.42191 -0.699378,-1.30669 -1.034513,-0.14407 -5.910283,20.5023 -2.842879,12.03814 -5.843103,24.09657 -6.667168,26.79652 -3.19287,10.46112 -9.537274,24.46512 -18.053507,39.84955 -7.251054,13.0989 -7.883289,13.91514 -9.277768,11.97791 z"
       id="path221"
       inkscape:connector-curvature="0" />
  </g>
</svg>
