<?xml version="1.0" encoding="UTF-8" standalone="no"?>
<!-- Created with Inkscape (http://www.inkscape.org/) -->

<svg
   xmlns:dc="http://purl.org/dc/elements/1.1/"
   xmlns:cc="http://creativecommons.org/ns#"
   xmlns:rdf="http://www.w3.org/1999/02/22-rdf-syntax-ns#"
   xmlns:svg="http://www.w3.org/2000/svg"
   xmlns="http://www.w3.org/2000/svg"
   xmlns:sodipodi="http://sodipodi.sourceforge.net/DTD/sodipodi-0.dtd"
   xmlns:inkscape="http://www.inkscape.org/namespaces/inkscape"
   width="210mm"
   height="297mm"
   viewBox="0 0 210 297"
   version="1.1"
   id="svg8"
   inkscape:version="0.92.5 (2060ec1f9f, 2020-04-08)"
   sodipodi:docname="twitter.svg">
  <defs
     id="defs2" />
  <sodipodi:namedview
     id="base"
     pagecolor="#ffffff"
     bordercolor="#666666"
     borderopacity="1.0"
     inkscape:pageopacity="0.0"
     inkscape:pageshadow="2"
     inkscape:zoom="0.35"
     inkscape:cx="400"
     inkscape:cy="217.14286"
     inkscape:document-units="mm"
     inkscape:current-layer="layer1"
     showgrid="false"
     inkscape:window-width="956"
     inkscape:window-height="1041"
     inkscape:window-x="960"
     inkscape:window-y="18"
     inkscape:window-maximized="0" />
  <metadata
     id="metadata5">
    <rdf:RDF>
      <cc:Work
         rdf:about="">
        <dc:format>image/svg+xml</dc:format>
        <dc:type
           rdf:resource="http://purl.org/dc/dcmitype/StillImage" />
        <dc:title></dc:title>
      </cc:Work>
    </rdf:RDF>
  </metadata>
  <g
     inkscape:label="Layer 1"
     inkscape:groupmode="layer"
     id="layer1">
    <path
       style="fill:#000000;stroke-width:0.42442802"
       d="M 58.322438,233.03473 C 43.26963,231.82277 30.61309,228.81689 18.411428,223.55601 14.198466,221.73956 4.5583195,216.66552 1.2829035,214.54052 l -2.16189574,-1.40258 7.56402274,0.16371 c 11.1702385,0.24178 20.0661245,-1.07309 29.8216435,-4.40782 4.951096,-1.69243 12.692709,-5.26096 16.411147,-7.56479 3.512324,-2.17611 9.769884,-6.68411 9.769884,-7.03829 0,-0.16301 -1.449892,-0.41749 -3.221983,-0.5655 -11.707954,-0.97801 -23.703756,-8.34991 -31.052072,-19.08276 -1.883556,-2.7511 -4.97667,-8.85811 -5.421307,-10.70378 l -0.253817,-1.05357 h 7.190593 c 4.594724,0 8.087508,-0.21396 9.675054,-0.59268 l 2.484462,-0.59267 -3.31594,-1.00268 C 21.509814,155.47711 8.5901307,139.03895 7.5170852,120.92953 l -0.2523424,-4.25869 1.623816,0.73311 c 6.4078732,2.893 12.1148422,4.51369 15.9436692,4.52774 l 1.847663,0.006 -1.249399,-0.97492 C 15.136763,112.9306 9.0138483,101.51987 7.8182915,88.140604 c -0.402782,-4.50746 0.091685,-10.78957 1.2014801,-15.26469 0.8545857,-3.44601 4.1133864,-11.28758 4.6010014,-11.07129 0.150589,0.0668 1.588158,1.68132 3.194602,3.58783 18.43243,21.87542 44.277622,36.904296 71.85606,41.784046 4.886737,0.86467 14.321445,1.92931 14.592625,1.64669 0.0754,-0.0786 -0.0665,-1.49838 -0.31537,-3.15502 -0.64861,-4.31734 -0.19043,-14.382436 0.82746,-18.177526 1.20538,-4.4941 1.97534,-6.51013 4.00505,-10.48676 13.21759,-25.89584 46.93189,-31.89129 67.53589,-12.00999 l 2.51063,2.42258 3.02405,-0.70253 c 6.56807,-1.52583 15.64948,-5.08965 21.42052,-8.40604 1.65777,-0.95264 3.01183,-1.50319 3.00903,-1.22344 -0.0118,1.22425 -3.00091,7.49285 -5.19172,10.88931 -2.60151,4.03316 -8.63714,10.33922 -11.66719,12.18994 -1.03502,0.63218 -1.8262,1.20741 -1.75817,1.2783 0.2473,0.25776 8.55582,-1.45963 12.60123,-2.60471 2.28255,-0.64609 5.8148,-1.84302 7.84945,-2.65983 2.03463,-0.81682 3.76628,-1.41534 3.84811,-1.33004 0.0819,0.0852 -1.10588,1.8925 -2.63937,4.01601 -3.65929,5.06723 -10.19496,12.07664 -14.98334,16.06947 l -3.83917,3.2013 0.24352,3.127526 c 0.28403,3.64797 -0.39604,14.48532 -1.3222,21.07017 -4.51739,32.1176 -21.68403,63.72306 -45.27844,83.36204 -18.22444,15.16923 -38.40315,23.76537 -62.787388,26.74748 -3.956122,0.48381 -18.52053,0.87555 -22.034204,0.59265 z"
       id="path253"
       inkscape:connector-curvature="0" />
  </g>
</svg>
