<?xml version="1.0" encoding="UTF-8" standalone="no"?>
<!-- Created with Inkscape (http://www.inkscape.org/) -->

<svg
   xmlns:dc="http://purl.org/dc/elements/1.1/"
   xmlns:cc="http://creativecommons.org/ns#"
   xmlns:rdf="http://www.w3.org/1999/02/22-rdf-syntax-ns#"
   xmlns:svg="http://www.w3.org/2000/svg"
   xmlns="http://www.w3.org/2000/svg"
   xmlns:sodipodi="http://sodipodi.sourceforge.net/DTD/sodipodi-0.dtd"
   xmlns:inkscape="http://www.inkscape.org/namespaces/inkscape"
   width="210mm"
   height="297mm"
   viewBox="0 0 210 297"
   version="1.1"
   id="svg8"
   inkscape:version="0.92.5 (2060ec1f9f, 2020-04-08)"
   sodipodi:docname="youtube.svg">
  <defs
     id="defs2" />
  <sodipodi:namedview
     id="base"
     pagecolor="#ffffff"
     bordercolor="#666666"
     borderopacity="1.0"
     inkscape:pageopacity="0.0"
     inkscape:pageshadow="2"
     inkscape:zoom="0.35"
     inkscape:cx="400"
     inkscape:cy="217.14286"
     inkscape:document-units="mm"
     inkscape:current-layer="layer1"
     showgrid="false"
     inkscape:window-width="956"
     inkscape:window-height="1041"
     inkscape:window-x="960"
     inkscape:window-y="18"
     inkscape:window-maximized="0" />
  <metadata
     id="metadata5">
    <rdf:RDF>
      <cc:Work
         rdf:about="">
        <dc:format>image/svg+xml</dc:format>
        <dc:type
           rdf:resource="http://purl.org/dc/dcmitype/StillImage" />
        <dc:title></dc:title>
      </cc:Work>
    </rdf:RDF>
  </metadata>
  <g
     inkscape:label="Layer 1"
     inkscape:groupmode="layer"
     id="layer1">
    <path
       style="fill:#000000;stroke-width:0.43152002"
       d="M 66.959175,216.73375 C 47.950739,216.03419 33.093886,214.88653 26.226335,213.58723 14.235385,211.31861 6.6381238,203.89799 4.0734922,191.94946 1.6878718,180.83493 0.7654148,167.90283 0.7654148,145.57289 c 0,-29.43817 1.9440245,-46.696513 6.1507683,-54.604303 3.4754319,-6.53307 10.3908609,-11.70271 17.7853929,-13.295483 10.961906,-2.361193 39.967903,-3.696681 80.158744,-3.690665 47.90792,0.0073 75.90356,1.709843 84.82172,5.158789 6.92387,2.677691 12.95879,9.106277 15.18381,16.174239 5.6892,18.072343 6.13774,74.830333 0.77209,97.702573 -2.39152,10.19439 -9.06805,17.35555 -18.68125,20.03727 -4.60331,1.28416 -15.32705,2.35979 -32.86845,3.29684 -10.5843,0.5654 -74.525367,0.84545 -87.129065,0.3816 z m 44.275655,-55.70513 c 14.704,-8.30819 26.71444,-15.2807 26.68987,-15.49448 -0.0378,-0.32895 -53.03081,-30.52277 -53.570362,-30.52277 -0.102945,0 -0.187171,13.75268 -0.187171,30.56152 0,16.80883 0.07493,30.56151 0.166564,30.56151 0.0916,0 12.19711,-6.7976 26.901099,-15.10578 z"
       id="path285"
       inkscape:connector-curvature="0" />
  </g>
</svg>
